<?xml version="1.0" encoding="UTF-8"?>
<svg id="katman_1" xmlns="http://www.w3.org/2000/svg" version="1.1" xmlns:xlink="http://www.w3.org/1999/xlink" viewBox="0 0 965.8 187.9">
  <!-- Generator: Adobe Illustrator 29.4.0, SVG Export Plug-In . SVG Version: 2.1.0 Build 152)  -->
  <defs>
    <style>
      .st0 {
        fill: url(#Adsız_degrade_152);
      }

      .st1 {
        fill: url(#Adsız_degrade_153);
      }

      .st2 {
        fill: #113443;
      }

      .st3 {
        fill: #fff;
        opacity: .2;
      }

      .st4 {
        fill: url(#Adsız_degrade_151);
      }

      .st5 {
        fill: url(#Adsız_degrade_15);
      }
    </style>
    <linearGradient id="Adsız_degrade_15" data-name="Adsız degrade 15" x1="1248.4" y1="24.5" x2="1515.8" y2="24.5" gradientUnits="userSpaceOnUse">
      <stop offset="0" stop-color="#69bc8f"/>
      <stop offset="1" stop-color="#113443"/>
    </linearGradient>
    <linearGradient id="Adsız_degrade_151" data-name="Adsız degrade 15" x1="1248.4" y1="131.3" x2="1515.8" y2="131.3" xlink:href="#Adsız_degrade_15"/>
    <linearGradient id="Adsız_degrade_152" data-name="Adsız degrade 15" x1="2.5" x2="269.9" xlink:href="#Adsız_degrade_15"/>
    <linearGradient id="Adsız_degrade_153" data-name="Adsız degrade 15" x1="2.5" y1="131.3" x2="269.9" y2="131.3" xlink:href="#Adsız_degrade_15"/>
  </defs>
  <g>
    <g>
      <path class="st2" d="M1567.7,85.9h4.2c1.7,0,3.1-.2,4.2-.7,1.1-.5,2.1-1.2,2.9-2.2l26.6-33.6c1.1-1.4,2.3-2.4,3.5-3,1.2-.6,2.8-.8,4.6-.8h15.4l-32.4,40c-1,1.2-2,2.3-2.9,3.1-.9.8-1.9,1.5-3,2.1,1.5.5,2.8,1.3,4,2.3,1.2,1,2.3,2.2,3.4,3.7l33.4,45.1h-15.8c-2.1,0-3.7-.3-4.8-.9-1-.6-1.9-1.5-2.6-2.6l-27.2-35.5c-.9-1.2-1.9-2-3-2.5-1.1-.5-2.7-.8-4.7-.8h-5.7v42.3h-17.9V45.5h17.9v40.4Z"/>
      <path class="st2" d="M1641.2,141.8v-68.3h9.6c1.7,0,2.9.3,3.5.9.7.6,1.1,1.7,1.3,3.2l1,8.3c2.4-4.2,5.3-7.5,8.6-10,3.3-2.4,7-3.7,11-3.7s6.2.8,8.4,2.3l-2.1,12.3c-.1.8-.4,1.4-.9,1.7-.4.3-1,.5-1.8.5s-1.6-.2-2.7-.5c-1.2-.3-2.7-.5-4.6-.5-3.4,0-6.3.9-8.8,2.8-2.4,1.9-4.5,4.6-6.2,8.3v42.5h-16.4Z"/>
      <path class="st2" d="M1723.7,72.4c4.3,0,8.3.7,11.9,2.1,3.6,1.4,6.7,3.4,9.3,6,2.6,2.6,4.7,5.9,6.1,9.7,1.5,3.8,2.2,8.2,2.2,13.1s0,2.3-.2,3.1c-.1.8-.3,1.5-.6,1.9-.3.5-.7.8-1.2,1-.5.2-1.1.3-1.9.3h-42.2c.5,7,2.4,12.2,5.7,15.4,3.3,3.3,7.6,4.9,13,4.9s5-.3,6.9-.9c1.9-.6,3.6-1.3,5.1-2.1,1.4-.8,2.7-1.4,3.8-2.1,1.1-.6,2.1-.9,3.2-.9s1.2.1,1.7.4c.5.3.9.6,1.3,1.1l4.8,6c-1.8,2.1-3.9,3.9-6.1,5.4-2.3,1.4-4.6,2.6-7.1,3.5-2.5.9-5,1.5-7.5,1.8-2.6.4-5,.5-7.4.5-4.7,0-9.2-.8-13.2-2.4-4.1-1.6-7.6-3.9-10.6-7-3-3.1-5.4-6.9-7.1-11.4s-2.6-9.8-2.6-15.8.8-9,2.3-13.1c1.5-4.1,3.7-7.7,6.5-10.7,2.8-3,6.3-5.4,10.3-7.2,4.1-1.8,8.6-2.7,13.7-2.7ZM1724.1,84.2c-4.8,0-8.5,1.4-11.2,4.1-2.7,2.7-4.4,6.5-5.2,11.5h30.9c0-2.1-.3-4.1-.9-6-.6-1.9-1.5-3.5-2.7-5-1.2-1.4-2.7-2.5-4.5-3.4-1.8-.8-3.9-1.2-6.4-1.2Z"/>
      <path class="st2" d="M1814.7,141.8c-2.1,0-3.5-1-4.2-3l-1.3-6.6c-1.4,1.6-2.9,3-4.5,4.3-1.6,1.3-3.2,2.4-5,3.3s-3.7,1.7-5.8,2.2c-2.1.5-4.3.8-6.7.8-3.7,0-7.1-.8-10.2-2.3-3.1-1.6-5.8-3.8-8-6.8-2.2-2.9-4-6.6-5.2-10.9-1.2-4.3-1.8-9.3-1.8-14.9s.7-9.8,2.1-14.1c1.4-4.3,3.3-8.1,5.9-11.3,2.6-3.2,5.7-5.7,9.3-7.5,3.6-1.8,7.6-2.7,12.1-2.7s7.1.6,9.8,1.8c2.7,1.2,5.1,2.9,7.3,4.9v-36.1h16.4v98.9h-10ZM1792.8,129.7c3.4,0,6.3-.7,8.7-2.1,2.4-1.4,4.7-3.4,6.8-6.1v-30.6c-1.9-2.3-3.9-3.9-6.1-4.8-2.2-.9-4.6-1.4-7.1-1.4s-4.7.5-6.8,1.4c-2,.9-3.7,2.3-5.1,4.2-1.4,1.9-2.5,4.3-3.2,7.2-.8,2.9-1.1,6.3-1.1,10.3s.3,7.4,1,10.1c.6,2.8,1.6,5,2.8,6.8,1.2,1.8,2.7,3,4.4,3.8,1.7.8,3.7,1.2,5.8,1.2Z"/>
      <path class="st2" d="M1862.5,53.6c0,1.4-.3,2.8-.9,4-.6,1.2-1.3,2.3-2.3,3.3-1,.9-2.1,1.7-3.4,2.2-1.3.6-2.7.8-4.1.8s-2.8-.3-4-.8c-1.3-.6-2.4-1.3-3.3-2.2-.9-.9-1.7-2-2.2-3.3-.6-1.2-.8-2.6-.8-4s.3-2.8.8-4.1c.6-1.3,1.3-2.4,2.2-3.3.9-.9,2-1.7,3.3-2.2,1.3-.6,2.6-.8,4-.8s2.8.3,4.1.8c1.3.6,2.4,1.3,3.4,2.2,1,.9,1.7,2,2.3,3.3.6,1.3.9,2.7.9,4.1ZM1860,73.5v68.3h-16.4v-68.3h16.4Z"/>
      <path class="st2" d="M1973,45.6v14.7h-28.9v81.5h-17.9V60.3h-29.1v-14.7h75.9Z"/>
      <path class="st2" d="M2020.7,141.8h-7.4c-1.6,0-2.8-.2-3.7-.7-.9-.5-1.6-1.4-2-2.8l-1.5-4.9c-1.7,1.6-3.4,2.9-5.1,4.1-1.7,1.2-3.4,2.2-5.2,3-1.8.8-3.7,1.4-5.7,1.8-2,.4-4.2.6-6.7.6s-5.5-.4-8-1.2c-2.4-.8-4.5-1.9-6.3-3.5-1.8-1.6-3.1-3.5-4.1-5.8-1-2.3-1.5-5-1.5-8.1s.7-5.1,2-7.6c1.4-2.5,3.6-4.8,6.8-6.8,3.2-2,7.3-3.7,12.6-5,5.2-1.3,11.7-2,19.5-2v-4c0-4.6-1-8-2.9-10.2s-4.7-3.3-8.4-3.3-4.9.3-6.7.9c-1.8.6-3.3,1.3-4.6,2.1-1.3.8-2.5,1.5-3.6,2.1-1.1.6-2.3.9-3.7.9s-2.1-.3-2.9-.9c-.8-.6-1.4-1.3-1.9-2.1l-3-5.3c7.9-7.2,17.3-10.8,28.4-10.8s7.6.7,10.7,2c3.1,1.3,5.8,3.1,8,5.5,2.2,2.3,3.8,5.1,5,8.4,1.1,3.2,1.7,6.8,1.7,10.6v43.1ZM1988.8,131.5c1.7,0,3.2-.2,4.7-.5,1.4-.3,2.8-.8,4-1.4s2.5-1.4,3.7-2.3c1.2-.9,2.4-2,3.6-3.2v-11.4c-4.8,0-8.8.3-12,.9-3.2.6-5.8,1.4-7.8,2.3-2,.9-3.3,2-4.2,3.3-.8,1.3-1.2,2.6-1.2,4.1,0,2.9.9,5,2.6,6.2,1.7,1.3,3.9,1.9,6.7,1.9Z"/>
      <path class="st2" d="M2053.6,42.9v56.6h3.1c1.1,0,2-.2,2.6-.5.6-.3,1.3-.9,2-1.7l17-21c.8-.9,1.6-1.6,2.4-2.1.8-.5,2-.8,3.3-.8h15l-21.2,25.4c-.8.9-1.5,1.8-2.3,2.6-.8.8-1.7,1.5-2.6,2,.9.7,1.8,1.4,2.5,2.3.7.9,1.4,1.8,2.1,2.9l22.8,33.1h-14.8c-1.3,0-2.4-.2-3.3-.7-.9-.4-1.7-1.2-2.4-2.3l-17.4-25.9c-.7-1-1.3-1.7-2-2-.7-.3-1.7-.5-3-.5h-3.7v31.3h-16.4V42.9h16.4Z"/>
      <path class="st2" d="M2130.3,53.6c0,1.4-.3,2.8-.9,4-.6,1.2-1.3,2.3-2.3,3.3-1,.9-2.1,1.7-3.4,2.2-1.3.6-2.7.8-4.1.8s-2.8-.3-4-.8c-1.3-.6-2.4-1.3-3.3-2.2-.9-.9-1.7-2-2.2-3.3-.6-1.2-.8-2.6-.8-4s.3-2.8.8-4.1c.6-1.3,1.3-2.4,2.2-3.3.9-.9,2-1.7,3.3-2.2,1.3-.6,2.6-.8,4-.8s2.8.3,4.1.8c1.3.6,2.4,1.3,3.4,2.2,1,.9,1.7,2,2.3,3.3.6,1.3.9,2.7.9,4.1ZM2127.8,73.5v68.3h-16.4v-68.3h16.4Z"/>
      <path class="st2" d="M2146.4,164.1v-90.6h10c1.1,0,2,.2,2.7.7.8.5,1.2,1.2,1.5,2.3l1.3,6.3c2.8-3.1,5.9-5.7,9.5-7.7,3.6-2,7.8-2.9,12.5-2.9s7.1.8,10.2,2.3c3.1,1.6,5.7,3.8,8,6.8,2.2,3,4,6.6,5.2,10.9,1.2,4.3,1.8,9.3,1.8,14.9s-.7,9.8-2.1,14.2c-1.4,4.3-3.3,8.1-5.9,11.3-2.6,3.2-5.6,5.7-9.3,7.5-3.6,1.8-7.7,2.7-12.1,2.7s-7.1-.6-9.8-1.8c-2.7-1.2-5.1-2.8-7.2-4.9v27.9h-16.4ZM2178.3,85.2c-3.4,0-6.3.7-8.8,2.2-2.4,1.4-4.7,3.5-6.8,6.1v30.6c1.9,2.3,3.9,3.9,6.1,4.8,2.2.9,4.6,1.4,7.1,1.4s4.7-.5,6.8-1.4,3.7-2.4,5.1-4.3c1.4-1.9,2.5-4.3,3.2-7.2.8-2.9,1.1-6.3,1.1-10.3s-.3-7.4-1-10.1c-.6-2.8-1.6-5-2.8-6.8-1.2-1.7-2.7-3-4.4-3.8-1.7-.8-3.6-1.2-5.8-1.2Z"/>
    </g>
    <g>
      <g>
        <path class="st5" d="M1515.8,19.2v26.8h-267.4v-26.8c0-1.1.1-2.2.3-3.2,0,0,0,0,0,0,1.5-7.3,8-12.9,15.8-12.9h235.1c8.9,0,16.1,7.2,16.1,16.1Z"/>
        <path class="st4" d="M1248.4,77.8v90.9c0,8.9,7.2,16.1,16.1,16.1h235.1c8.9,0,16.1-7.2,16.1-16.1v-90.9h-267.4ZM1292.9,111.4c1-1,2.4-1.6,3.9-1.6h95.4c1,0,2,.3,2.8.8,1.6,1,2.7,2.7,2.7,4.7s-.6,2.9-1.6,3.9c-.3.3-.7.6-1.1.8-.8.5-1.8.8-2.8.8h-95.4c-3.1,0-5.5-2.5-5.5-5.5s0-.5,0-.8c.2-1.2.7-2.3,1.6-3.1ZM1330.6,162.1c-1,1-2.4,1.6-3.9,1.6h-29.9c-3.1,0-5.5-2.5-5.5-5.5s.6-2.9,1.6-3.9c1-1,2.4-1.6,3.9-1.6h29.9c3.1,0,5.5,2.5,5.5,5.5s-.6,2.9-1.6,3.9ZM1353.6,140.7c-1,1-2.4,1.6-3.9,1.6h-52.9c-3.1,0-5.5-2.5-5.5-5.5s.6-2.9,1.6-3.9,2.4-1.6,3.9-1.6h52.9c3.1,0,5.5,2.5,5.5,5.5s-.4,2.3-1.1,3.2c-.2.2-.4.5-.6.7Z"/>
      </g>
      <path class="st3" d="M1480.3,24.5c0,7.3-.7,14.5-2,21.5h-227.9c-1.3-7-2-14.1-2-21.5s0-5.7.3-8.5c0,0,0,0,0,0,1.5-7.3,8-12.9,15.8-12.9h213.8c1.3,7,2,14.1,2,21.4Z"/>
      <path class="st3" d="M1467.4,77.8c-3.8,7.3-8.3,14.1-13.5,20.4-8.7,10.6-19.2,19.5-31.1,26.5-8.6,5-17.9,9-27.8,11.7-3.8,1.1-7.8,1.9-11.8,2.6-6.2,1-12.5,1.5-18.9,1.5s-6.9-.2-10.2-.5c.7-.9,1.1-2,1.1-3.2,0-3-2.5-5.5-5.5-5.5h-30.7c-6.7-2.9-13.2-6.4-19.2-10.4h92.4c1,0,2-.3,2.8-.8.4-.2.7-.5,1.1-.8,1-1,1.6-2.4,1.6-3.9s-1.1-3.8-2.7-4.7c-.8-.5-1.8-.8-2.8-.8h-95.4c-1.5,0-2.9.6-3.9,1.6-.8.8-1.4,1.9-1.6,3.1-12.3-10-22.6-22.5-29.9-36.7h206Z"/>
    </g>
  </g>
  <g>
    <g>
      <path class="st2" d="M321.8,85.9h4.2c1.7,0,3.1-.2,4.2-.7,1.1-.5,2.1-1.2,2.9-2.2l26.6-33.6c1.1-1.4,2.3-2.4,3.5-3,1.2-.6,2.8-.8,4.6-.8h15.4l-32.4,40c-1,1.2-2,2.3-2.9,3.1-.9.8-1.9,1.5-3,2.1,1.5.5,2.8,1.3,4,2.3,1.2,1,2.3,2.2,3.4,3.7l33.4,45.1h-15.8c-2.1,0-3.7-.3-4.8-.9-1-.6-1.9-1.5-2.6-2.6l-27.2-35.5c-.9-1.2-1.9-2-3-2.5-1.1-.5-2.7-.8-4.7-.8h-5.7v42.3h-17.9V45.5h17.9v40.4Z"/>
      <path class="st2" d="M395.2,141.8v-68.3h9.6c1.7,0,2.9.3,3.5.9.7.6,1.1,1.7,1.3,3.2l1,8.3c2.4-4.2,5.3-7.5,8.6-10,3.3-2.4,7-3.7,11-3.7s6.2.8,8.4,2.3l-2.1,12.3c-.1.8-.4,1.4-.9,1.7-.4.3-1,.5-1.8.5s-1.6-.2-2.7-.5c-1.2-.3-2.7-.5-4.6-.5-3.4,0-6.3.9-8.8,2.8-2.4,1.9-4.5,4.6-6.2,8.3v42.5h-16.4Z"/>
      <path class="st2" d="M477.8,72.4c4.3,0,8.3.7,11.9,2.1,3.6,1.4,6.7,3.4,9.3,6,2.6,2.6,4.7,5.9,6.1,9.7,1.5,3.8,2.2,8.2,2.2,13.1s0,2.3-.2,3.1c-.1.8-.3,1.5-.6,1.9-.3.5-.7.8-1.2,1-.5.2-1.1.3-1.9.3h-42.2c.5,7,2.4,12.2,5.7,15.4,3.3,3.3,7.6,4.9,13,4.9s5-.3,6.9-.9c1.9-.6,3.6-1.3,5.1-2.1,1.4-.8,2.7-1.4,3.8-2.1,1.1-.6,2.1-.9,3.2-.9s1.2.1,1.7.4c.5.3.9.6,1.3,1.1l4.8,6c-1.8,2.1-3.9,3.9-6.1,5.4-2.3,1.4-4.6,2.6-7.1,3.5-2.5.9-5,1.5-7.5,1.8-2.6.4-5,.5-7.4.5-4.7,0-9.2-.8-13.2-2.4-4.1-1.6-7.6-3.9-10.6-7-3-3.1-5.4-6.9-7.1-11.4s-2.6-9.8-2.6-15.8.8-9,2.3-13.1c1.5-4.1,3.7-7.7,6.5-10.7,2.8-3,6.3-5.4,10.3-7.2,4.1-1.8,8.6-2.7,13.7-2.7ZM478.2,84.2c-4.8,0-8.5,1.4-11.2,4.1-2.7,2.7-4.4,6.5-5.2,11.5h30.9c0-2.1-.3-4.1-.9-6-.6-1.9-1.5-3.5-2.7-5-1.2-1.4-2.7-2.5-4.5-3.4-1.8-.8-3.9-1.2-6.4-1.2Z"/>
      <path class="st2" d="M568.8,141.8c-2.1,0-3.5-1-4.2-3l-1.3-6.6c-1.4,1.6-2.9,3-4.5,4.3-1.6,1.3-3.2,2.4-5,3.3s-3.7,1.7-5.8,2.2c-2.1.5-4.3.8-6.7.8-3.7,0-7.1-.8-10.2-2.3-3.1-1.6-5.8-3.8-8-6.8-2.2-2.9-4-6.6-5.2-10.9-1.2-4.3-1.8-9.3-1.8-14.9s.7-9.8,2.1-14.1c1.4-4.3,3.3-8.1,5.9-11.3,2.6-3.2,5.7-5.7,9.3-7.5,3.6-1.8,7.6-2.7,12.1-2.7s7.1.6,9.8,1.8c2.7,1.2,5.1,2.9,7.3,4.9v-36.1h16.4v98.9h-10ZM546.9,129.7c3.4,0,6.3-.7,8.7-2.1,2.4-1.4,4.7-3.4,6.8-6.1v-30.6c-1.9-2.3-3.9-3.9-6.1-4.8-2.2-.9-4.6-1.4-7.1-1.4s-4.7.5-6.8,1.4c-2,.9-3.7,2.3-5.1,4.2-1.4,1.9-2.5,4.3-3.2,7.2-.8,2.9-1.1,6.3-1.1,10.3s.3,7.4,1,10.1c.6,2.8,1.6,5,2.8,6.8,1.2,1.8,2.7,3,4.4,3.8,1.7.8,3.7,1.2,5.8,1.2Z"/>
      <path class="st2" d="M616.6,53.6c0,1.4-.3,2.8-.9,4-.6,1.2-1.3,2.3-2.3,3.3-1,.9-2.1,1.7-3.4,2.2-1.3.6-2.7.8-4.1.8s-2.8-.3-4-.8c-1.3-.6-2.4-1.3-3.3-2.2-.9-.9-1.7-2-2.2-3.3-.6-1.2-.8-2.6-.8-4s.3-2.8.8-4.1c.6-1.3,1.3-2.4,2.2-3.3.9-.9,2-1.7,3.3-2.2,1.3-.6,2.6-.8,4-.8s2.8.3,4.1.8c1.3.6,2.4,1.3,3.4,2.2,1,.9,1.7,2,2.3,3.3.6,1.3.9,2.7.9,4.1ZM614.1,73.5v68.3h-16.4v-68.3h16.4Z"/>
      <path class="st2" d="M727.1,45.6v14.7h-28.9v81.5h-17.9V60.3h-29.1v-14.7h75.9Z"/>
      <path class="st2" d="M774.8,141.8h-7.4c-1.6,0-2.8-.2-3.7-.7-.9-.5-1.6-1.4-2-2.8l-1.5-4.9c-1.7,1.6-3.4,2.9-5.1,4.1-1.7,1.2-3.4,2.2-5.2,3-1.8.8-3.7,1.4-5.7,1.8-2,.4-4.2.6-6.7.6s-5.5-.4-8-1.2c-2.4-.8-4.5-1.9-6.3-3.5-1.8-1.6-3.1-3.5-4.1-5.8-1-2.3-1.5-5-1.5-8.1s.7-5.1,2-7.6c1.4-2.5,3.6-4.8,6.8-6.8,3.2-2,7.3-3.7,12.6-5,5.2-1.3,11.7-2,19.5-2v-4c0-4.6-1-8-2.9-10.2s-4.7-3.3-8.4-3.3-4.9.3-6.7.9c-1.8.6-3.3,1.3-4.6,2.1-1.3.8-2.5,1.5-3.6,2.1-1.1.6-2.3.9-3.7.9s-2.1-.3-2.9-.9c-.8-.6-1.4-1.3-1.9-2.1l-3-5.3c7.9-7.2,17.3-10.8,28.4-10.8s7.6.7,10.7,2c3.1,1.3,5.8,3.1,8,5.5,2.2,2.3,3.8,5.1,5,8.4,1.1,3.2,1.7,6.8,1.7,10.6v43.1ZM742.9,131.5c1.7,0,3.2-.2,4.7-.5,1.4-.3,2.8-.8,4-1.4s2.5-1.4,3.7-2.3c1.2-.9,2.4-2,3.6-3.2v-11.4c-4.8,0-8.8.3-12,.9-3.2.6-5.8,1.4-7.8,2.3-2,.9-3.3,2-4.2,3.3-.8,1.3-1.2,2.6-1.2,4.1,0,2.9.9,5,2.6,6.2,1.7,1.3,3.9,1.9,6.7,1.9Z"/>
      <path class="st2" d="M807.6,42.9v56.6h3.1c1.1,0,2-.2,2.6-.5.6-.3,1.3-.9,2-1.7l17-21c.8-.9,1.6-1.6,2.4-2.1.8-.5,2-.8,3.3-.8h15l-21.2,25.4c-.8.9-1.5,1.8-2.3,2.6-.8.8-1.7,1.5-2.6,2,.9.7,1.8,1.4,2.5,2.3.7.9,1.4,1.8,2.1,2.9l22.8,33.1h-14.8c-1.3,0-2.4-.2-3.3-.7-.9-.4-1.7-1.2-2.4-2.3l-17.4-25.9c-.7-1-1.3-1.7-2-2-.7-.3-1.7-.5-3-.5h-3.7v31.3h-16.4V42.9h16.4Z"/>
      <path class="st2" d="M884.4,53.6c0,1.4-.3,2.8-.9,4-.6,1.2-1.3,2.3-2.3,3.3-1,.9-2.1,1.7-3.4,2.2-1.3.6-2.7.8-4.1.8s-2.8-.3-4-.8c-1.3-.6-2.4-1.3-3.3-2.2-.9-.9-1.7-2-2.2-3.3-.6-1.2-.8-2.6-.8-4s.3-2.8.8-4.1c.6-1.3,1.3-2.4,2.2-3.3.9-.9,2-1.7,3.3-2.2,1.3-.6,2.6-.8,4-.8s2.8.3,4.1.8c1.3.6,2.4,1.3,3.4,2.2,1,.9,1.7,2,2.3,3.3.6,1.3.9,2.7.9,4.1ZM881.9,73.5v68.3h-16.4v-68.3h16.4Z"/>
      <path class="st2" d="M900.5,164.1v-90.6h10c1.1,0,2,.2,2.7.7.8.5,1.2,1.2,1.5,2.3l1.3,6.3c2.8-3.1,5.9-5.7,9.5-7.7,3.6-2,7.8-2.9,12.5-2.9s7.1.8,10.2,2.3c3.1,1.6,5.7,3.8,8,6.8,2.2,3,4,6.6,5.2,10.9,1.2,4.3,1.8,9.3,1.8,14.9s-.7,9.8-2.1,14.2c-1.4,4.3-3.3,8.1-5.9,11.3-2.6,3.2-5.6,5.7-9.3,7.5-3.6,1.8-7.7,2.7-12.1,2.7s-7.1-.6-9.8-1.8c-2.7-1.2-5.1-2.8-7.2-4.9v27.9h-16.4ZM932.4,85.2c-3.4,0-6.3.7-8.8,2.2-2.4,1.4-4.7,3.5-6.8,6.1v30.6c1.9,2.3,3.9,3.9,6.1,4.8,2.2.9,4.6,1.4,7.1,1.4s4.7-.5,6.8-1.4,3.7-2.4,5.1-4.3c1.4-1.9,2.5-4.3,3.2-7.2.8-2.9,1.1-6.3,1.1-10.3s-.3-7.4-1-10.1c-.6-2.8-1.6-5-2.8-6.8-1.2-1.7-2.7-3-4.4-3.8-1.7-.8-3.6-1.2-5.8-1.2Z"/>
    </g>
    <g>
      <g>
        <path class="st0" d="M269.9,19.2v26.8H2.5v-26.8c0-1.1.1-2.2.3-3.2,0,0,0,0,0,0,1.5-7.3,8-12.9,15.8-12.9h235.1c8.9,0,16.1,7.2,16.1,16.1Z"/>
        <path class="st1" d="M2.5,77.8v90.9c0,8.9,7.2,16.1,16.1,16.1h235.1c8.9,0,16.1-7.2,16.1-16.1v-90.9H2.5ZM47,111.4c1-1,2.4-1.6,3.9-1.6h95.4c1,0,2,.3,2.8.8,1.6,1,2.7,2.7,2.7,4.7s-.6,2.9-1.6,3.9c-.3.3-.7.6-1.1.8-.8.5-1.8.8-2.8.8H50.9c-3.1,0-5.5-2.5-5.5-5.5s0-.5,0-.8c.2-1.2.7-2.3,1.6-3.1ZM84.7,162.1c-1,1-2.4,1.6-3.9,1.6h-29.9c-3.1,0-5.5-2.5-5.5-5.5s.6-2.9,1.6-3.9c1-1,2.4-1.6,3.9-1.6h29.9c3.1,0,5.5,2.5,5.5,5.5s-.6,2.9-1.6,3.9ZM107.7,140.7c-1,1-2.4,1.6-3.9,1.6h-52.9c-3.1,0-5.5-2.5-5.5-5.5s.6-2.9,1.6-3.9,2.4-1.6,3.9-1.6h52.9c3.1,0,5.5,2.5,5.5,5.5s-.4,2.3-1.1,3.2c-.2.2-.4.5-.6.7Z"/>
      </g>
      <path class="st3" d="M234.4,24.5c0,7.3-.7,14.5-2,21.5H4.5c-1.3-7-2-14.1-2-21.5s0-5.7.3-8.5c0,0,0,0,0,0,1.5-7.3,8-12.9,15.8-12.9h213.8c1.3,7,2,14.1,2,21.4Z"/>
      <path class="st3" d="M221.5,77.8c-3.8,7.3-8.3,14.1-13.5,20.4-8.7,10.6-19.2,19.5-31.1,26.5-8.6,5-17.9,9-27.8,11.7-3.8,1.1-7.8,1.9-11.8,2.6-6.2,1-12.5,1.5-18.9,1.5s-6.9-.2-10.2-.5c.7-.9,1.1-2,1.1-3.2,0-3-2.5-5.5-5.5-5.5h-30.7c-6.7-2.9-13.2-6.4-19.2-10.4h92.4c1,0,2-.3,2.8-.8.4-.2.7-.5,1.1-.8,1-1,1.6-2.4,1.6-3.9s-1.1-3.8-2.7-4.7c-.8-.5-1.8-.8-2.8-.8H50.9c-1.5,0-2.9.6-3.9,1.6-.8.8-1.4,1.9-1.6,3.1-12.3-10-22.6-22.5-29.9-36.7h206Z"/>
    </g>
  </g>
</svg>